<?xml version="1.0" encoding="UTF-8"?><svg id="Layer_1" xmlns="http://www.w3.org/2000/svg" viewBox="0 0 768 768"><defs><style>.cls-1{fill:#18304d;}</style></defs><path class="cls-1" d="m0,0v768h768V0H0Zm593.69,249.01c-32.1,1.94-38.91,6.81-38.91,26.74v247.57c0,90.95-47.67,148.82-101.16,148.82-21.41,0-41.35-9.24-41.35-24.31,0-9.73,7.3-17.03,16.54-17.03,5.84,0,12.16,2.43,18.97,9.73,13.62,14.59,20.42,17.99,28.2,17.99,18.48,0,26.75-18.96,26.75-55.45v-153.14h-51.85c-21.2,0-38.73-18-53.81-39.4l-95.81-127.43c-3.4-4.86-6.33-6.32-10.21-6.32s-6.81,2.43-11.19,6.81l-14.59,15.08v120.61c0,19.94,6.81,24.81,38.91,26.75v3.89h-129.86v-3.89c32.1-1.94,38.91-6.81,38.91-26.75V126.5c0-19.93-6.81-24.8-38.91-26.74v-3.89h129.86v3.89c-32.1,1.94-38.91,6.81-38.91,26.74v158.56l114.3-119.16c43.28-44.74,43.77-64.2,5.84-66.14v-3.89h122.57v3.89c-27.24,2.91-67.61,19.93-118.67,72.47l-60.31,62.25,113.81,151.74c27.06,39.55,39.54,53.06,59.95,57.96v-168.43c0-19.93-6.81-24.8-40.86-26.74v-3.89h131.81v3.89Z"/></svg>